HIERARCHY
ROOT Hips
{
  OFFSET -318.666 97.7961 -295.934
  CHANNELS 6 Xposition Yposition Zposition Zrotation Xrotation Yrotation
  JOINT ToSpine
  {
    OFFSET -0.0105055 1.38907 -7.13956
    CHANNELS 3 Zrotation Xrotation Yrotation
    JOINT Spine
    {
      OFFSET 0.0105055 10 1
      CHANNELS 3 Zrotation Xrotation Yrotation
      JOINT Spine1
      {
        OFFSET 0 12 1.60637
        CHANNELS 3 Zrotation Xrotation Yrotation
        JOINT Neck
        {
          OFFSET 0 27 2.26658
          CHANNELS 3 Zrotation Xrotation Yrotation
          JOINT Head
          {
            OFFSET 0 9 2.12705
            CHANNELS 3 Zrotation Xrotation Yrotation
            End Site
            {
              OFFSET 0 11 2
            }
          }
        }
        JOINT LeftShoulder
        {
          OFFSET 8 19.6109 2.86452
          CHANNELS 3 Zrotation Xrotation Yrotation
          JOINT LeftArm
          {
            OFFSET 12 1 0.681055
            CHANNELS 3 Zrotation Xrotation Yrotation
            JOINT LeftForeArm
            {
              OFFSET 19 0 -1.52608
              CHANNELS 3 Zrotation Xrotation Yrotation
              JOINT LeftHand
              {
                OFFSET 23 0 0
                CHANNELS 3 Zrotation Xrotation Yrotation
                End Site
                {
                  OFFSET 10 0 0
                }
              }
            }
          }
        }
        JOINT RightShoulder
        {
          OFFSET -8 19.6109 2.86452
          CHANNELS 3 Zrotation Xrotation Yrotation
          JOINT RightArm
          {
            OFFSET -12 1 0.681055
            CHANNELS 3 Zrotation Xrotation Yrotation
            JOINT RightForeArm
            {
              OFFSET -19 0 -1.52608
              CHANNELS 3 Zrotation Xrotation Yrotation
              JOINT RightHand
              {
                OFFSET -23 0 0
                CHANNELS 3 Zrotation Xrotation Yrotation
                End Site
                {
                  OFFSET -10 0 0
                }
              }
            }
          }
        }
      }
    }
  }
  JOINT LeftUpLeg
  {
    OFFSET 9 -7.17245 0
    CHANNELS 3 Zrotation Xrotation Yrotation
    JOINT LeftLeg
    {
      OFFSET 0 -44.1113 0
      CHANNELS 3 Zrotation Xrotation Yrotation
      JOINT LeftFoot
      {
        OFFSET 0 -36.1829 0
        CHANNELS 3 Zrotation Xrotation Yrotation
        JOINT LeftToeBase
        {
          OFFSET 0 -4.84184 13
          CHANNELS 3 Zrotation Xrotation Yrotation
          End Site
          {
            OFFSET 0 1 6
          }
        }
      }
    }
  }
  JOINT RightUpLeg
  {
    OFFSET -9 -7.17245 0
    CHANNELS 3 Zrotation Xrotation Yrotation
    JOINT RightLeg
    {
      OFFSET 0 -44.0551 0
      CHANNELS 3 Zrotation Xrotation Yrotation
      JOINT RightFoot
      {
        OFFSET 0 -36.1469 0
        CHANNELS 3 Zrotation Xrotation Yrotation
        JOINT RightToeBase
        {
          OFFSET 0 -4.92256 13
          CHANNELS 3 Zrotation Xrotation Yrotation
          End Site
          {
            OFFSET 0 1 6
          }
        }
      }
    }
  }
}
MOTION
Frames:	13
Frame Time:	0.0333333
-318.666 97.7961 -295.934 3.30604 -3.19217 42.1004 0 0 0 3.14966 -0.298322 -0.606512 -4.61336 8.85689 0.237624 5.48725 0.326086 -8.44489 -1.11861 -2.27781 -6.45956 -33.9682 3.81138 -6.00089 -36.4913 28.0219 -16.3779 -6.88213 -20.5569 -6.78676 -13.2216 0.392614 -3.3867 26.4008 5.77056 14.1006 49.7779 17.6066 5.44024 -0.459014 6.3148 15.9915 8.83182 0.034399 0.445436 1.05437 6.55067 7.74067 -1.68967 4.17136 -3.54881 10.9553 -2.88593 0.276806 1.15956 -10.4967 -3.08593 -1.74242 5.10429 -7.13007 -0.832118 4.10084 3.85051 -6.68625 -3.09417 -0.178595 1.69156 -5.90298 -1.6461 
-318.785 97.7531 -295.817 2.69581 -3.12049 41.2457 0 0 0 3.5026 -0.988355 -0.140039 -4.66573 9.10469 0.677132 5.38615 0.311967 -8.33915 -0.809167 -2.39551 -6.45086 -34.0033 3.79373 -5.9487 -36.5476 27.8496 -16.309 -6.63651 -19.4565 -6.84321 -13.5582 0.394975 -3.32176 26.3454 5.78242 14.1648 49.8696 17.2148 5.46704 -0.607415 6.85525 15.8634 8.81718 0.0509947 0.661431 1.67706 5.84444 8.28082 -1.96079 4.89741 -3.14434 11.1244 -3.18549 0.310299 1.19623 -10.9662 -3.20402 -1.08089 4.35993 -6.2568 -1.18191 4.3172 3.83154 -7.03874 -2.90277 -0.178564 1.79343 -6.28916 -1.70661 
-318.691 97.7511 -295.868 3.07663 -3.18455 41.5667 0 0 0 3.22317 -0.707304 -0.297014 -4.40443 9.08347 0.474248 5.0591 0.410203 -8.23247 -0.369076 -2.44925 -6.53102 -34.464 3.80656 -5.87167 -36.1241 28.0441 -16.3763 -7.00911 -21.9046 -6.38703 -13.604 0.524891 -4.39844 26.1829 5.7788 14.2381 49.8963 17.008 5.41733 -0.975009 7.81629 15.9798 8.71509 0.0802418 1.05301 1.25515 6.2681 7.95115 -1.76468 4.61841 -3.13008 11.1027 -3.12702 0.304003 1.20329 -10.8131 -3.2941 -1.45976 4.72106 -6.68709 -0.906548 4.33578 4.08796 -7.83214 -2.54235 -0.174065 1.88921 -6.58855 -2.00085 
-318.7 97.7622 -295.844 3.0832 -3.26063 41.5912 0 0 0 3.05675 -0.685456 -0.280478 -3.92405 9.11884 0.370449 4.46847 0.411666 -8.0164 -0.0348522 -2.67172 -6.56484 -35.0136 3.78304 -5.68761 -35.745 28.0449 -16.503 -6.45353 -18.4758 -6.38479 -13.4865 0.498223 -4.21184 25.7613 5.72397 14.292 49.861 16.8639 6.11535 -1.01201 9.34894 15.0772 8.36098 0.126383 1.72894 1.32649 6.32055 7.99547 -1.76057 4.66563 -3.13197 11.0222 -3.26542 0.315147 1.23936 -10.6259 -3.58649 -1.33237 4.76387 -6.52707 -1.05189 4.39714 3.76663 -7.90335 -2.7368 -0.189092 1.98422 -7.00631 -1.85666 
-318.693 97.8529 -295.821 3.03297 -3.38462 41.6436 0 0 0 3.02675 -0.614253 -0.274589 -3.57873 9.03804 0.316665 4.3535 0.537969 -7.95227 -0.00843111 -3.00462 -6.54285 -35.3438 3.81284 -5.68471 -35.5043 27.8722 -16.3429 -6.24511 -17.9686 -6.08208 -13.9206 0.606389 -4.96403 25.7747 5.81286 14.5571 49.8532 16.444 6.04776 -1.54244 10.8185 15.2281 8.01605 0.151454 2.16128 1.46259 6.66569 8.03831 -1.78904 4.0832 -3.22548 10.8366 -3.06103 0.290407 1.25859 -10.3356 -3.78468 -1.17536 4.82106 -6.64127 -0.90748 4.41911 3.58561 -8.08225 -2.039 -0.144067 2.1233 -7.55095 -1.8912 
-318.73 97.7429 -295.795 3.12046 -3.32494 41.6968 0 0 0 2.61188 -0.609403 -0.2155 -3.12915 9.04154 0.230199 4.11653 0.508877 -8.05131 -0.234945 -2.83842 -6.6657 -35.5576 3.80873 -5.62679 -35.4604 27.8319 -16.4744 -6.26762 -17.4521 -6.2196 -13.852 0.5496 -4.52212 25.4366 5.74114 14.5178 49.9304 16.293 6.16815 -1.93191 11.9377 15.3928 7.71215 0.194031 2.87807 1.44364 6.31219 8.09674 -1.79445 4.90824 -3.40715 11.0768 -3.44885 0.334521 1.17817 -10.3313 -3.25411 -1.24093 4.82234 -6.43333 -1.00673 4.45821 3.58061 -8.74306 -2.43409 -0.186104 2.21289 -7.87263 -2.04323 
-318.724 97.7412 -295.791 3.17612 -3.30312 41.7174 0 0 0 2.52887 -0.597749 -0.202653 -2.97171 9.05915 0.214498 4.27737 0.582073 -8.1359 -0.880155 -3.13294 -6.57708 -35.6905 3.81733 -5.61765 -35.2675 28.051 -16.5471 -6.3628 -17.7322 -6.33718 -13.7255 0.526329 -4.3711 25.4385 5.78111 14.6404 49.8781 16.2254 6.01152 -2.29709 12.5618 15.7603 7.29345 0.21477 3.36885 1.32555 6.38014 7.97699 -1.70101 4.74085 -3.34144 10.7116 -3.21903 0.30186 1.15828 -10.7161 -3.01595 -1.27402 4.8431 -6.45119 -0.949332 4.43514 3.69416 -9.50924 -2.16808 -0.180351 2.28305 -8.08327 -2.36076 
-318.782 97.7417 -295.796 3.07124 -3.2272 41.885 0 0 0 2.39405 -0.402184 -0.292819 -2.59516 8.56418 0.0190532 3.49153 0.89123 -7.86368 -0.0430368 -3.12899 -6.70598 -36.2961 3.84371 -5.54628 -34.906 27.9778 -16.1995 -6.493 -19.3221 -5.97522 -14.1833 0.689524 -5.53817 25.1606 5.7811 14.792 49.9871 16.4154 5.99449 -2.03033 12.2284 15.4721 6.91934 0.233006 3.85268 1.43174 6.15596 8.02005 -1.69964 4.89107 -3.44369 10.594 -3.63031 0.336695 1.19723 -9.94507 -3.47681 -1.17905 4.65013 -6.38326 -0.88476 4.51141 3.39623 -9.87915 -1.73311 -0.149797 2.44542 -8.7389 -2.35845 
-318.803 97.753 -295.802 3.09841 -3.08133 41.9343 0 0 0 2.32508 -0.489258 -0.32076 -2.54663 8.6836 -0.00769811 3.38904 0.678139 -7.77436 -0.0651364 -2.82608 -6.64278 -36.4153 3.80992 -5.44119 -34.7692 28.2606 -16.3287 -6.41966 -18.0563 -6.57737 -13.6694 0.524358 -4.37276 25.0432 5.77768 14.846 49.9719 16.7523 5.94525 -1.51242 10.6443 15.3627 6.67745 0.242536 4.15563 1.33581 6.12073 7.97639 -1.78234 4.70763 -3.47748 10.7333 -3.44356 0.323586 1.18597 -9.98262 -3.39461 -1.46353 4.43243 -6.72585 -0.569507 4.83511 3.54255 -10.1564 -2.13678 -0.189904 2.52214 -9.04518 -2.37316 
-318.833 97.7383 -295.756 3.19841 -3.06833 41.9824 0 0 0 2.46929 -0.409585 -0.315114 -2.92872 8.65782 0.0933399 3.98194 0.770439 -7.97383 -0.676246 -3.08733 -6.5424 -36.16 3.8143 -5.50692 -34.9043 28.3091 -16.2701 -6.40435 -18.4885 -6.44988 -13.8232 0.56386 -4.64909 25.3296 5.84131 14.8862 49.9224 16.9304 5.83249 -0.466897 7.8594 14.8218 6.58018 0.24895 4.32855 1.35005 6.21572 8.07632 -1.92168 4.65828 -3.63428 10.9059 -3.33964 0.318894 1.15527 -10.0797 -3.1702 -1.57 4.42109 -6.85242 -0.338945 4.99807 3.81166 -11.2043 -1.82209 -0.178741 2.58664 -9.24983 -2.68484 
-318.872 97.832 -295.706 3.05788 -3.25029 42.0961 0 0 0 2.93637 -0.557027 -0.368222 -3.14819 9.08206 0.13099 3.98864 0.435198 -7.87122 -0.261056 -2.74972 -6.52078 -35.275 3.77865 -5.61799 -35.8248 27.7206 -16.472 -6.1928 -17.5075 -6.29416 -14.0466 0.51309 -4.16296 25.2498 5.75942 14.6757 50.0954 17.3978 6.21407 0.771333 4.72243 14.0561 6.91874 0.227338 3.75936 1.67778 6.63306 8.21865 -2.10274 3.79201 -4.05591 11.1455 -2.59708 0.253442 1.16269 -10.7875 -3.02549 -1.25933 4.37594 -6.85249 -0.317508 5.21587 3.28818 -10.9084 -1.50148 -0.143373 2.75765 -9.97267 -2.50391 
-318.957 97.7195 -295.629 3.10652 -3.08925 42.0865 0 0 0 2.39269 -0.923157 -0.230759 -2.54486 9.63246 0.0792623 3.32534 -0.0178704 -7.81479 -0.137172 -2.49776 -6.68978 -35.7755 3.79729 -5.55112 -35.2225 28.1467 -16.8547 -6.42177 -18.057 -6.61748 -12.9754 0.455591 -4.0047 24.5252 5.62872 14.6634 50.5726 18.5907 6.45823 3.03232 -1.79386 12.9901 6.42099 0.163117 2.90738 1.69132 6.0609 8.33583 -2.09559 4.89918 -4.04471 10.8415 -3.28759 0.312055 1.20749 -10.5643 -3.38826 -1.3619 4.20721 -6.65522 -0.294812 5.39506 3.37333 -11.8637 -2.01514 -0.209399 2.78516 -10.0425 -2.78396 
-319.134 97.7013 -295.581 3.01401 -2.91491 41.8986 0 0 0 2.34706 -0.694433 -0.176759 -2.80437 9.21488 0.198288 3.0614 -0.557665 -7.43914 1.19033 -1.18114 -6.66759 -35.938 3.79705 -5.51477 -34.8256 27.5022 -16.7591 -6.12431 -17.3592 -6.11417 -16.2842 0.45664 -3.19091 25.1146 5.8079 14.9009 50.1061 18.1814 6.31932 2.87915 -1.21265 12.9132 7.74797 0.0887886 1.31111 1.63032 5.70175 8.17781 -1.86849 5.12579 -3.69342 10.692 -3.41837 0.319975 1.14861 -10.253 -3.08019 -1.39421 3.80657 -6.66071 -0.0609004 5.58266 3.7096 -12.7254 -1.56073 -0.174046 2.87555 -10.379 -3.01787 
